HIERARCHY
ROOT Hips
{
	OFFSET 0.00000 0.00000 0.00000
	CHANNELS 6 Xposition Yposition Zposition Zrotation Yrotation Xrotation 
	JOINT LHipJoint
	{
		OFFSET 0 0 0
		CHANNELS 3 Zrotation Yrotation Xrotation
		JOINT LeftHip
		{
			OFFSET 1.58895 -1.83665 0.71753
			CHANNELS 3 Zrotation Yrotation Xrotation
			JOINT LeftKnee
			{
				OFFSET 2.50528 -6.88321 0.00000
				CHANNELS 3 Zrotation Yrotation Xrotation
				JOINT LeftAnkle
				{
					OFFSET 2.63244 -7.23257 0.00000
					CHANNELS 3 Zrotation Yrotation Xrotation
					JOINT LeftToe
					{
						OFFSET 0.23691 -0.65090 1.72750
						CHANNELS 3 Zrotation Yrotation Xrotation
						End Site
						{
							OFFSET 0.00000 -0.00000 0.92561
						}
					}
				}
			}
		}
	}
	JOINT RHipJoint
	{
		OFFSET 0 0 0
		CHANNELS 3 Zrotation Yrotation Xrotation
		JOINT RightHip
		{
			OFFSET -1.51435 -1.83665 0.71753
			CHANNELS 3 Zrotation Yrotation Xrotation
			JOINT RightKnee
			{
				OFFSET -2.54551 -6.99375 0.00000
				CHANNELS 3 Zrotation Yrotation Xrotation
				JOINT RightAnkle
				{
					OFFSET -2.66027 -7.30903 0.00000
					CHANNELS 3 Zrotation Yrotation Xrotation
					JOINT RightToe
					{
						OFFSET -0.22981 -0.63138 2.03959
						CHANNELS 3 Zrotation Yrotation Xrotation
						End Site
						{
							OFFSET -0.00000 -0.00000 1.07060
						}
					}
				}
			}
		}
	}
	JOINT lowerback
	{
		OFFSET 0 0 0
		CHANNELS 3 Zrotation Yrotation Xrotation
		JOINT Chest
		{
			OFFSET -0.02651 1.86275 -0.11152
			CHANNELS 3 Zrotation Yrotation Xrotation
			JOINT Chest2
			{
				OFFSET 0.01019 1.86224 0.04087
				CHANNELS 3 Zrotation Yrotation Xrotation
				JOINT lowerneck
				{
					OFFSET 0 0 0
					CHANNELS 3 Zrotation Yrotation Xrotation
					JOINT Neck
					{
						OFFSET -0.01926 1.80512 0.08867
						CHANNELS 3 Zrotation Yrotation Xrotation
						JOINT Head
						{
							OFFSET 0.05516 1.76451 -0.38475
							CHANNELS 3 Zrotation Yrotation Xrotation
							End Site
							{
								OFFSET 0.01592 1.82587 -0.14001
							}
						}
					}
				}
				JOINT LeftCollar
				{
					OFFSET 0 0 0
					CHANNELS 3 Zrotation Yrotation Xrotation
					JOINT LeftShoulder
					{
						OFFSET 3.47116 1.51376 0.14491
CHANNELS 3 Zrotation Xrotation Yrotation
						JOINT LeftElbow
						{
OFFSET 0 -4.780950 0.000000
CHANNELS 3 Zrotation Xrotation Yrotation
							JOINT LeftWrist
							{
OFFSET 0 -3.586150 -0.000000
CHANNELS 3 Zrotation Xrotation Yrotation
								JOINT lhand
								{
									OFFSET 0 0 0
CHANNELS 3 Zrotation Xrotation Yrotation
									JOINT LFingers
									{
OFFSET 0 -0.659810 0.000000
CHANNELS 3 Zrotation Xrotation Yrotation
										End Site
										{
OFFSET 0 -0.531960 0.000000
										}
									}
								}
								JOINT LThumb
								{
OFFSET 0 0.000000 0.000000
CHANNELS 3 Zrotation Xrotation Yrotation
									End Site
									{
OFFSET 0 -0.540080 0.540080
									}
								}
							}
						}
					}
				}
				JOINT RightCollar
				{
					OFFSET 0 0 0
					CHANNELS 3 Zrotation Yrotation Xrotation
					JOINT RightShoulder
					{
						OFFSET -3.31725 1.61216 0.35156
CHANNELS 3 Zrotation Xrotation Yrotation
						JOINT RightElbow
						{
OFFSET 0 -4.489130 0.000000
CHANNELS 3 Zrotation Xrotation Yrotation
							JOINT RightWrist
							{
OFFSET 0 -3.705100 0.000000
CHANNELS 3 Zrotation Xrotation Yrotation
								JOINT rhand
								{
									OFFSET 0 0 0
CHANNELS 3 Zrotation Xrotation Yrotation
									JOINT RFingers
									{
OFFSET 0 -0.449140 0.000000
CHANNELS 3 Zrotation Xrotation Yrotation
										End Site
										{
OFFSET 0 -0.362110 0.000000
										}
									}
								}
								JOINT RThumb
								{
OFFSET 0 0.000000 0.000000
CHANNELS 3 Zrotation Xrotation Yrotation
									End Site
									{
OFFSET 0 -0.367630 0.367630
									}
								}
							}
						}
					}
				}
			}
		}
	}
}
MOTION
Frames: 6
Frame Time: 0.008333333333333333
0.257276 17.467766 5.881591 11.089338 -21.670456 -3.379178 0.000000 0.000000 0.000000 -27.704956 27.754331 17.279260 2.003959 -8.874294 -25.403107 -0.471376 12.151595 -2.894825 0.606107 -4.983429 -13.861362 0.000000 0.000000 0.000000 -3.737080 4.266234 25.214753 -4.551025 12.859642 -38.845142 0.741813 -18.386110 4.552329 -0.383270 3.975543 -11.008057 12.682884 -7.953541 12.267697 11.140276 -8.106397 0.483302 6.550780 -4.177244 -6.444444 8.388644 10.082467 -24.358619 -20.847990 15.179930 11.954421 -6.165384 5.334075 10.321982 0.000000 0.000000 0.000000 -24.262270 -61.212581 -116.429857 60.027222 -56.316548 34.363880 14.210639 1.748721 37.681087 0.000000 0.000000 0.000000 -7.125000 0.000000 0.000000 -10.527248 -7.991527 -12.080557 0.000000 0.000000 0.000000 -2.060372 -24.653324 16.274611 -135.131577 -50.702901 -97.862881 -27.073309 -34.788619 22.693385 0.000000 0.000000 0.000000 7.125000 0.000000 0.000000 2.074993 55.124346 -0.516035
0.266956 17.428702 5.917413 10.819901 -21.590069 -3.933683 0.000000 0.000000 0.000000 -27.028173 28.403525 18.624937 2.152082 -9.175781 -26.346830 -0.472851 12.229155 -2.472312 0.639769 -5.117306 -14.243529 0.000000 0.000000 0.000000 -3.505651 3.851321 26.228436 -4.656707 12.986353 -39.317546 0.707817 -18.225367 4.825064 -0.427991 4.198482 -11.635822 12.977832 -7.852485 11.737903 10.786317 -8.076715 0.595863 5.896682 -4.166993 -6.119104 8.686546 10.076042 -25.084352 -20.691648 15.101199 12.470928 -6.178020 5.253738 10.625492 0.000000 0.000000 0.000000 -24.858283 -62.596543 -117.789601 63.487116 -57.167364 37.257850 15.579748 0.482044 39.093377 0.000000 0.000000 0.000000 -7.125000 0.000000 0.000000 -10.011304 -9.627346 -11.709122 0.000000 0.000000 0.000000 -1.755719 -26.918451 16.352808 -137.368669 -49.552129 -99.579699 -23.599680 -33.228913 24.160941 0.000000 0.000000 0.000000 7.125000 0.000000 0.000000 6.277270 55.953050 -1.694820
0.271066 17.389731 5.954291 10.497976 -21.380049 -4.480502 0.000000 0.000000 0.000000 -26.224651 29.011703 20.023699 2.305415 -9.474909 -27.292704 -0.464803 12.217871 -1.934529 0.718679 -5.416723 -15.101146 0.000000 0.000000 0.000000 -3.226034 3.359119 27.329344 -4.764355 13.113398 -39.794457 0.685415 -18.083826 4.954003 -0.443629 4.273446 -11.847373 12.714127 -8.079296 11.206869 10.954658 -8.488102 0.370069 6.237199 -4.366401 -6.006364 8.201570 10.031546 -23.877721 -20.841830 15.223999 12.116079 -6.136129 5.364259 10.285671 0.000000 0.000000 0.000000 -24.328705 -63.607931 -116.432760 66.717831 -57.846265 39.983229 16.972425 -0.585303 40.575662 0.000000 0.000000 0.000000 -7.125000 0.000000 0.000000 -9.534821 -11.352772 -11.366345 0.000000 0.000000 0.000000 -3.311365 -27.841963 16.515014 -140.431121 -47.806283 -101.879022 -24.080995 -31.902652 24.472867 0.000000 0.000000 0.000000 7.125000 0.000000 0.000000 5.881071 56.381966 -1.645050
0.277911 17.348468 5.987168 10.117014 -21.309813 -4.958526 0.000000 0.000000 0.000000 -25.393445 29.670997 21.331365 2.466929 -9.776982 -28.257948 -0.456771 12.210022 -1.470088 0.767757 -5.594950 -15.613700 0.000000 0.000000 0.000000 -2.907480 2.860301 28.277236 -4.874648 13.241100 -40.278058 0.643699 -17.876243 5.275882 -0.480034 4.442600 -12.325269 12.629613 -7.901421 10.559449 10.943404 -8.403516 0.342211 6.142914 -4.324167 -5.665142 7.883680 9.798975 -23.693771 -20.856734 15.029062 12.221356 -6.135428 5.260382 10.236905 0.000000 0.000000 0.000000 -25.428932 -64.841056 -117.281143 70.075992 -58.441366 42.836034 18.447787 -1.809760 41.944467 0.000000 0.000000 0.000000 -7.125000 0.000000 0.000000 -9.040140 -13.000240 -10.961084 0.000000 0.000000 0.000000 -4.877991 -29.563390 15.900067 -142.876617 -46.264715 -103.669094 -28.626129 -29.679810 20.912339 0.000000 0.000000 0.000000 7.125000 0.000000 0.000000 0.006716 53.493261 -0.038607
0.291117 17.304822 6.017729 9.693314 -21.440355 -5.391833 0.000000 0.000000 0.000000 -24.585291 30.339544 22.555531 2.625998 -10.062962 -29.181288 -0.457263 12.294766 -1.158678 0.790670 -5.675954 -15.847177 0.000000 0.000000 0.000000 -2.568575 2.414397 29.053226 -4.979378 13.360432 -40.733172 0.584531 -17.602222 5.760082 -0.544317 4.725837 -13.128385 12.763103 -7.809582 10.140496 10.796528 -8.340011 0.202929 5.849646 -4.300061 -5.625636 7.765307 9.715325 -23.376738 -20.765570 14.982276 12.423666 -6.103028 5.249605 10.223941 0.000000 0.000000 0.000000 -25.273901 -66.181174 -116.958339 73.677442 -58.963267 45.913994 20.199934 -3.403531 42.954220 0.000000 0.000000 0.000000 -7.125000 0.000000 0.000000 -8.379292 -14.377669 -10.291206 0.000000 0.000000 0.000000 -6.112845 -31.477500 16.133070 -144.710071 -45.014063 -104.980635 -28.683014 -27.743802 20.280511 0.000000 0.000000 0.000000 7.125000 0.000000 0.000000 -0.217145 52.821454 0.042168
0.309506 17.257399 6.045836 9.324427 -21.761221 -5.870776 0.000000 0.000000 0.000000 -23.871141 31.021704 23.771733 2.784537 -10.337258 -30.076372 -0.470385 12.528328 -0.947604 0.798390 -5.703146 -15.925486 0.000000 0.000000 0.000000 -2.306455 2.103634 29.754977 -5.076177 13.468973 -41.150524 0.525626 -17.313453 6.221365 -0.593591 4.932039 -13.714802 13.177144 -7.417535 9.728291 10.280332 -7.905033 0.372755 4.910089 -4.090917 -5.339361 8.083896 9.607770 -24.453793 -20.472014 14.772976 13.232412 -6.098764 5.087061 10.661215 0.000000 0.000000 0.000000 -26.303748 -68.067126 -118.846880 77.789922 -59.420627 49.446963 22.241045 -5.729183 43.387253 0.000000 0.000000 0.000000 -7.125000 0.000000 0.000000 -7.483326 -15.287838 -9.257815 0.000000 0.000000 0.000000 -7.352656 -34.058575 15.674368 -146.165070 -43.958883 -106.000543 -29.055481 -25.715709 19.621222 0.000000 0.000000 0.000000 7.125000 0.000000 0.000000 -0.731576 52.165075 0.127884
